<svg width="48" height="48" version="1.1" viewBox="0 0 48 48" xml:space="preserve" xmlns="http://www.w3.org/2000/svg"><path d="m37.506 42.702c-5.8157 2.6863-40.223 11.738-34.399-8.8905 2.3364-10.846-2.0972-14.476-2.0781-24.008 0.0097-4.8346 4.6895-8.812 7.5124-8.8042 12.075 0.03363 22.278-0.00841 33.557 1.8878 2.7371 0.46016 4.8753 4.878 4.8727 8.2446l-0.01681 21.918c-0.0045 5.8871-6.0288 8.2162-9.4485 9.6516z" fill="#3f424d" stroke-width="1.2669"/><path d="m35.577 40.02c-12.867 3.4211-33.737 9.1348-29.564-6.2972 1.4436-7.4093-1.0628-14.813-2.081-22.197-0.80858-3.739 4.3887-7.2714 6.8092-7.2647 10.354 0.028841 19.103-0.00719 28.774 1.6188 2.347 0.39458 4.1804 4.1827 4.1782 7.0696l-0.01441 18.794c-0.0039 5.0479-5.1694 7.0452-8.1017 8.2759z" fill="#fff" stroke-width="1.0863"/><path d="m13.052 16.169h3.5064v12.092h7.17v2.4949h-10.676zm16.408 2.4949h-4.4953v-2.4949h12.475v2.4949h-4.4728v12.092h-3.5064z" fill="#3f424d" stroke-width="0" aria-label="LT"/></svg>
