<?xml version="1.0" encoding="UTF-8"?>
<svg width="48" height="48" version="1.1" viewBox="0 0 48 48" xml:space="preserve" xmlns="http://www.w3.org/2000/svg"><defs><style>.cls-1{fill:none;}</style></defs><path d="m12 6c-3.3238 0-6 2.6765-6 6v24c0 3.3238 2.6765 6 6 6h24c3.3238 0 6-2.6765 6-6v-24c0-3.3238-2.6765-6-6-6h-24zm14.723 8.002a1.9883 1.9883 0 0 1 1.2754 3.418l-6.8223 6.5801 6.8223 6.582a1.9874 1.9874 0 0 1-1.3789 3.418 1.9874 1.9874 0 0 1-1.3809-0.55664l-7.5156-7.25a3.0457 3.0457 0 0 1 0-4.3867l7.5156-7.25a1.9883 1.9883 0 0 1 1.4844-0.55469z" fill="#3f424d"/></svg>
