<svg width="16" height="16" version="1.1" viewBox="0 0 16 16" xml:space="preserve" xmlns="http://www.w3.org/2000/svg"><path d="m5.48 11.5 2.52-2.52 2.52 2.52 0.98-0.98-2.52-2.52 2.52-2.52-0.98-0.98-2.52 2.52-2.52-2.52-0.98 0.98 2.52 2.52-2.52 2.52zm2.52 3.5q-1.4525 0-2.73-0.55125t-2.2225-1.4962-1.4962-2.2225-0.55125-2.73 0.55125-2.73 1.4962-2.2225 2.2225-1.4962 2.73-0.55125 2.73 0.55125 2.2225 1.4962 1.4962 2.2225 0.55125 2.73-0.55125 2.73-1.4962 2.2225-2.2225 1.4962-2.73 0.55125zm0-1.4q2.345 0 3.9725-1.6275t1.6275-3.9725-1.6275-3.9725-3.9725-1.6275-3.9725 1.6275-1.6275 3.9725 1.6275 3.9725 3.9725 1.6275z"/></svg>
