<svg width="16mm" height="16mm" version="1.1" viewBox="0 0 16 16" xml:space="preserve" xmlns="http://www.w3.org/2000/svg"><path d="m8.0001 1.0004c-0.95926 0-1.8635 0.18471-2.7126 0.55416-0.84909 0.36946-1.5913 0.87178-2.2264 1.507-0.6352 0.6352-1.1375 1.3773-1.507 2.2264-0.36933 0.84884-0.55405 1.7527-0.55416 2.7117h-4.7e-5c0 2.12e-4 1.1e-5 4.2e-4 1.1e-5 6.3e-4v1.87e-4h1e-5c1.09e-4 0.95897 0.18482 1.8628 0.55416 2.7117 0.36944 0.84908 0.87177 1.5913 1.5069 2.2264 0.6352 0.63518 1.3773 1.1375 2.2264 1.507 0.84909 0.36944 1.7532 0.55416 2.7124 0.55416s1.8635-0.18471 2.7126-0.55416c0.84908-0.36946 1.5913-0.87179 2.2264-1.507 0.6352-0.6352 1.1375-1.3773 1.507-2.2264 0.36933-0.84884 0.55405-1.7527 0.55414-2.7117 0-2.12e-4 -1.1e-5 -4.17e-4 -1.1e-5 -6.3e-4v-1.87e-4h-1.1e-5c-1.55e-4 -0.95897-0.18482-1.8628-0.55416-2.7117-0.3694-0.84908-0.87172-1.5913-1.5069-2.2264-0.6352-0.63518-1.3773-1.1375-2.2264-1.507-0.84909-0.36944-1.7532-0.55416-2.7124-0.55416zm0 1.5555c1.247 0 2.3419 0.36674 3.2858 1.0978-0.02695-0.02074-0.05487-0.03915-0.08206-0.05929 0.05181 0.03857 0.10355 0.07732 0.15448 0.11806-0.0138-0.01099-0.02715-0.02306-0.04102-0.03389 0.07248 0.05696 0.14405 0.11612 0.21473 0.17743-0.04355-0.0376-0.08791-0.07327-0.13216-0.1092 0.05983 0.04879 0.11938 0.09826 0.17798 0.1501 0.05647 0.04996 0.11121 0.10082 0.16513 0.15211-0.04441-0.04229-0.08855-0.08523-0.13374-0.12566 0.06547 0.0588 0.13009 0.11965 0.19398 0.18224-0.0114-0.01115-0.02314-0.02146-0.03459-0.03249 0.89639 0.8625 1.4357 1.912 1.6175 3.1488h-1.789l-1.3417-2.6834c-0.1426-0.29815-0.37593-0.44723-0.70001-0.44723-0.32408 0-0.55742 0.14908-0.70001 0.44723l-2.4112 4.8223-0.85556-1.7112c-0.06481-0.14255-0.16204-0.2495-0.29167-0.32083-0.12963-0.07134-0.26574-0.10701-0.40833-0.10701h-2.275c-2e-6 1.5e-5 -8e-6 4.6e-5 -1e-5 6.2e-5l-1.1e-5 -6.2e-5h1.6e-5c0.18187-1.2367 0.72109-2.2861 1.6174-3.1486-0.0112 0.01079-0.02269 0.02089-0.03384 0.0318 0.0637-0.06239 0.12811-0.12307 0.19338-0.1817-0.04493 0.0402-0.08882 0.0829-0.13298 0.12494 0.05371-0.05107 0.10822-0.10172 0.16445-0.15146 0.05856-0.0518 0.11808-0.10124 0.17787-0.15-0.04417 0.03587-0.08846 0.07148-0.13195 0.10901 0.07064-0.06126 0.14216-0.12037 0.21459-0.17729-0.01383 0.0108-0.02715 0.02284-0.04091 0.0338 0.05097-0.04077 0.10276-0.07955 0.15461-0.11815-0.02722 0.02016-0.05516 0.03857-0.08213 0.05933 0.49712-0.38498 1.0363-0.66853 1.6174-0.85076 0.04936-0.01548 0.09906-0.03013 0.14903-0.04415 0.03448-0.0097 0.06906-0.01909 0.10383-0.02806 0.04239-0.01094 0.08492-0.02154 0.12774-0.03145 0.04462-0.01032 0.08954-0.01996 0.13463-0.02916 0.03504-0.0071 0.07005-0.01437 0.10537-0.02084 0.056-0.01026 0.11246-0.0194 0.16916-0.02795 0.02606-0.0039 0.05197-0.0082 0.07819-0.01181 0.0716-0.0098 0.14382-0.01802 0.21654-0.02508 0.01268-0.0012 0.02519-0.0029 0.0379-4e-3 0.17863-0.01615 0.36056-0.02439 0.5459-0.02439zm-3.2037 1.0383c0.03906-0.02893 0.07829-0.05744 0.11786-0.08515-0.03951 0.02782-0.07884 0.05611-0.11786 0.08515zm0.11786-0.08515c0.0411-0.02894 0.08224-0.05776 0.12387-0.08538-0.04168 0.02751-0.08273 0.05656-0.12387 0.08538zm0.12387-0.08538c0.08482-0.05599 0.1702-0.11064 0.25723-0.1613-0.08695 0.0508-0.17249 0.10507-0.25723 0.1613zm-0.39634 0.28867c-0.01403 0.01122-0.02778 0.02311-0.04174 0.03449 0.01398-0.01135 0.0277-0.02331 0.04174-0.03449zm-0.38406 0.33595c-0.0088 0.0084-0.01784 0.01656-0.02655 0.02495 0.0088-0.0085 0.01773-0.01656 0.02655-0.02495zm7.5108 0.02475c-0.0084-0.0081-0.01717-0.01603-0.02566-0.0241 0.0085 0.0081 0.01717 0.01592 0.02566 0.0241zm-0.36876-0.32631c-0.0139-0.01134-0.0276-0.02317-0.04156-0.03434 0.01398 0.01113 0.02764 0.02304 0.04156 0.03434zm-0.19604-0.1524c-0.03911-0.02912-0.07854-0.05747-0.11816-0.08537 0.03967 0.02778 0.079 0.05636 0.11816 0.08537zm-0.11816-0.08537c-0.04103-0.02874-0.08196-0.05771-0.12353-0.08515 0.04152 0.02755 0.08255 0.0563 0.12353 0.08515zm-0.12353-0.08515c-0.08477-0.05625-0.17032-0.11053-0.25731-0.16135 0.08705 0.05068 0.17246 0.10534 0.25731 0.16135zm-1.4065 3.2146 0.85556 1.7112c0.06481 0.14255 0.16204 0.2495 0.29167 0.32083 0.12963 0.07134 0.26574 0.107 0.40833 0.107h2.275c-0.19445 1.3222-0.79723 2.4306-1.8084 3.325-0.27666 0.24474-0.56713 0.4554-0.87096 0.63311 0.04167-0.02428 0.08392-0.04718 0.12507-0.07272-0.35508 0.22089-0.72985 0.39431-1.1238 0.52141-0.53387 0.17224-1.1028 0.25989-1.7081 0.25989v-6.2e-5c-0.01187 0-0.02347-6.54e-4 -0.0353-7.25e-4h-1.65e-4c-0.30892-0.0017-0.60816-0.02684-0.8984-0.07365-6.2e-5 -1.1e-5 -1.24e-4 -1.7e-5 -1.86e-4 -4.8e-5 -0.08762-0.01414-0.1744-0.03032-0.26031-0.04857-4.7e-5 -9e-6 -7.8e-5 -1.4e-5 -1.24e-4 -1.7e-5 -0.08533-0.01812-0.16983-0.03825-0.25347-0.06042-6.2e-5 -1.6e-5 -1.4e-4 -4.7e-5 -2.13e-4 -6.2e-5 -0.01358-0.0036-0.02713-0.0073-0.04067-0.01099-6.3e-5 -1.6e-5 -1.4e-4 -4.7e-5 -2.07e-4 -6.2e-5 -0.06902-0.0189-0.13748-0.03915-0.20536-0.06083-1.5e-5 -5e-6 -4.6e-5 -5e-6 -6.2e-5 -1.1e-5 -0.0039-0.0012-0.0077-0.0025-0.01161-0.0038-0.09907-0.03191-0.19694-0.06672-0.29355-0.10457-0.28804-0.11283-0.56539-0.25152-0.83158-0.41706 0.04149 0.02574 0.08409 0.04881 0.1261 0.07327-0.30448-0.17795-0.59553-0.38898-0.87273-0.63418-1.0111-0.89445-1.614-2.0028-1.8084-3.325h1.789l1.3417 2.6834c0.14259 0.29815 0.37593 0.44725 0.70001 0.44725 0.32408 0 0.55741-0.14909 0.7-0.44725zm-4.2606 6.0981c0.01276 0.0075 0.02551 0.01493 0.03831 0.02227-0.01282-0.0073-0.02555-0.01484-0.03831-0.02227zm0.03831 0.02227c0.06333 0.03615 0.1272 0.07101 0.19173 0.10428-0.06447-0.03339-0.12843-0.06801-0.19173-0.10428zm0.19173 0.10428c0.02433 0.0126 0.04888 0.02465 0.07338 0.03684-0.02452-0.01214-0.04903-0.02428-0.07338-0.03684zm0.07338 0.03684c0.057 0.02824 0.11414 0.05611 0.17205 0.08214-0.05786-0.02613-0.11509-0.05379-0.17205-0.08214zm0.17205 0.08214c0.03746 0.01692 0.0755 0.03243 0.11334 0.04842-0.03787-0.01592-0.07585-0.03157-0.11334-0.04842zm0.11334 0.04842c0.03898 0.01639 0.07727 0.03442 0.11665 0.04983 0.0089 0.0035 0.01804 0.0062 0.02693 0.0096-0.04832-0.01868-0.09586-0.03926-0.14358-0.05942zm0.14358 0.05942c0.08793 0.03399 0.1767 0.06588 0.26662 0.09498-0.08999-0.02899-0.17866-0.06113-0.26662-0.09498zm3.6807 0.0943c0.08993-0.02914 0.17872-0.06109 0.26667-0.09513-0.08798 0.03389-0.17667 0.06609-0.26667 0.09513zm0.26667-0.09513c0.04813-0.01854 0.09538-0.0392 0.1429-0.05919-0.04749 0.02008-0.09481 0.04058-0.1429 0.05919zm0.1429-0.05919c0.03796-0.01605 0.0761-0.03163 0.11368-0.04861-0.0376 0.01691-0.0757 0.03263-0.11368 0.04861zm0.11368-0.04861c0.05769-0.02595 0.11462-0.05375 0.1714-0.08189-0.05674 0.02825-0.11376 0.05584-0.1714 0.08189zm0.1714-0.08189c0.02469-0.01229 0.04943-0.02446 0.07396-0.03717-0.02454 0.01266-0.04925 0.02492-0.07396 0.03717zm0.07396-0.03717c0.06414-0.0331 0.12763-0.06776 0.19059-0.1037-0.06292 0.03606-0.12651 0.07049-0.19059 0.1037zm0.19059-0.1037c0.01322-0.0076 0.02638-0.01529 0.03954-0.02299-0.01317 0.0077-0.02631 0.01543-0.03954 0.02299zm2.6776-3.6725c-0.03322 0.1742-0.07474 0.34494-0.12457 0.51225 0.04983-0.16731 0.09135-0.33805 0.12457-0.51225zm-9.8924 1.9251c0.09965 0.14664 0.20761 0.28985 0.32387 0.42961 0.11626 0.13976 0.24084 0.27608 0.3737 0.40895 0.07402 0.07402 0.14936 0.14488 0.22553 0.21371-0.07616-0.06887-0.15151-0.13969-0.22553-0.21371-0.13287-0.13287-0.25745-0.26919-0.3737-0.40895-0.11626-0.13976-0.22421-0.28296-0.32387-0.42961zm8.3977 0.83854c-0.07399 0.07399-0.14931 0.14479-0.22544 0.21363 0.07614-0.0688 0.15145-0.13963 0.22544-0.21363zm-0.29195 0.27163c-0.0559 0.04906-0.11221 0.09714-0.16925 0.14347 0.05706-0.04629 0.11333-0.09444 0.16925-0.14347zm-7.1159 3.2e-4c0.05595 0.04905 0.11227 0.09722 0.16936 0.14352-0.05707-0.04635-0.11343-0.09444-0.16936-0.14352zm6.8738 0.20075c-0.05877 0.04617-0.11814 0.0909-0.1781 0.13421 0.05998-0.04325 0.1193-0.0881 0.1781-0.13421zm-6.6323 7.8e-5c0.05907 0.04633 0.11867 0.09138 0.17894 0.13482-0.06024-0.0435-0.11989-0.08844-0.17894-0.13482zm6.3921 0.17854c-0.07248 0.05083-0.14582 0.09959-0.22001 0.1463 0.07422-0.04663 0.14749-0.09555 0.22001-0.1463zm-6.1518 2.68e-4c0.07295 0.05105 0.14666 0.10025 0.22134 0.14713-0.07464-0.04696-0.14842-0.09601-0.22134-0.14713z"/></svg>
