<svg width="16mm" height="16mm" version="1.1" viewBox="0 0 16 16" xml:space="preserve" xmlns="http://www.w3.org/2000/svg"><path d="m14.125 8.875h-1.75c-0.48386 0-0.87498-0.39113-0.87498-0.87498 0-0.48389 0.39113-0.87502 0.87498-0.87502h1.75c0.48386 0 0.87498 0.39113 0.87498 0.87502 0 0.48386-0.39113 0.87498-0.87498 0.87498zm-2.4133-3.3494c-0.34211 0.34211-0.89513 0.34211-1.2372 0-0.34211-0.34214-0.34211-0.89513 0-1.2373l1.2372-1.2372c0.34211-0.34211 0.89513-0.34211 1.2372 0 0.34211 0.34214 0.34211 0.89513 0 1.2372zm-3.7117 9.4744c-0.48389 0-0.87501-0.39113-0.87501-0.87498v-1.75c0-0.48386 0.39113-0.87498 0.87501-0.87498 0.48386 0 0.87498 0.39113 0.87498 0.87498v1.75c0 0.48386-0.39113 0.87498-0.87498 0.87498zm0-10.5c-0.48389 0-0.87501-0.39113-0.87501-0.87498v-1.75c0-0.48386 0.39113-0.87498 0.87501-0.87498 0.48386 0 0.87498 0.39113 0.87498 0.87498v1.75c0 0.48386-0.39113 0.87498-0.87498 0.87498zm-3.7117 8.449c-0.34211 0.34211-0.8951 0.34211-1.2372 0-0.34211-0.34211-0.34211-0.89513 0-1.2372l1.2372-1.2372c0.34214-0.34211 0.89513-0.34211 1.2373 0 0.34211 0.34211 0.34211 0.89513 0 1.2372zm0-7.4234-1.2372-1.2373c-0.34211-0.34211-0.34211-0.8951 0-1.2372 0.34214-0.34211 0.89513-0.34211 1.2372 0l1.2373 1.2372c0.34211 0.34214 0.34211 0.89513 0 1.2373-0.34214 0.34211-0.89513 0.34211-1.2373 0zm0.21165 2.4744c0 0.48386-0.39113 0.87498-0.87498 0.87498h-1.75c-0.48386 0-0.87498-0.39113-0.87498-0.87498 0-0.48389 0.39113-0.87501 0.87498-0.87501h1.75c0.48386 0 0.87498 0.39113 0.87498 0.87501zm7.2117 2.4744 1.2372 1.2372c0.34211 0.34211 0.34211 0.89598 0 1.2372-0.34211 0.34126-0.89513 0.34211-1.2372 0l-1.2372-1.2372c-0.34211-0.34211-0.34211-0.89513 0-1.2372s0.89513-0.34211 1.2372 0z" fill="#fff"/></svg>
