<svg width="16mm" height="16mm" version="1.1" viewBox="0 0 16 16" xml:space="preserve" xmlns="http://www.w3.org/2000/svg"><path d="m7.9881 1.001c-3.6755 0-6.6898 2.835-6.9751 6.4383l3.752 1.5505c0.31806-0.21655 0.70174-0.34431 1.1152-0.34431 0.03671 0 0.07309 0.0017 0.1098 0.0033l1.6691-2.4162v-0.03456c0-1.4556 1.183-2.639 2.639-2.639 1.4547 0 2.639 1.1847 2.639 2.6407 0 1.456-1.1843 2.6395-2.639 2.6395h-0.06118l-2.3778 1.6979c0 0.03009 0.0017 0.06118 0.0017 0.09276 0 1.0938-0.88376 1.981-1.9776 1.981-0.95374 0-1.7592-0.68426-1.9429-1.5907l-2.6863-1.1126c0.83168 2.9383 3.5292 5.0924 6.7335 5.0924 3.8657 0 6.9995-3.1343 6.9995-7s-3.1343-7-6.9995-7zm-2.5895 10.623-0.85924-0.35569c0.15262 0.31676 0.4165 0.58274 0.7665 0.72931 0.75645 0.31456 1.6293-0.04415 1.9438-0.80194 0.15361-0.3675 0.15394-0.76956 0.0033-1.1371-0.15097-0.3675-0.4375-0.65408-0.80324-0.80674-0.364-0.1518-0.7525-0.14535-1.0955-0.01753l0.88855 0.3675c0.55782 0.23318 0.82208 0.875 0.58845 1.4319-0.23145 0.55826-0.87326 0.8225-1.4315 0.59019zm6.6587-5.4267c0-0.96948-0.78926-1.7587-1.7587-1.7587-0.97126 0-1.7587 0.78926-1.7587 1.7587 0 0.97126 0.7875 1.7587 1.7587 1.7587 0.96994 0 1.7587-0.7875 1.7587-1.7587zm-3.0756-0.0033c0-0.73019 0.59106-1.3217 1.3212-1.3217 0.72844 0 1.3217 0.59148 1.3217 1.3217 0 0.72976-0.59326 1.3213-1.3217 1.3213-0.73106 0-1.3212-0.5915-1.3212-1.3213z" fill="#fff"/></svg>
