<svg width="16mm" height="16mm" version="1.1" viewBox="0 0 16 16" xml:space="preserve" xmlns="http://www.w3.org/2000/svg"><path d="m8 15q-1.4583 0-2.7319-0.55417-1.2735-0.55417-2.2167-1.4972-0.94313-0.94306-1.4972-2.2167t-0.55417-2.7319q-7.699e-5 -1.4583 0.55417-2.7319 0.55424-1.2736 1.4972-2.2167 0.94298-0.94306 2.2167-1.4972 1.2737-0.55417 2.7319-0.55417 1.5944 0 3.0237 0.68056 1.4292 0.68056 2.4208 1.925v-1.8278h1.5556v4.6667h-4.6667v-1.5556h2.1389q-0.79722-1.0889-1.9639-1.7111-1.1667-0.62222-2.5083-0.62222-2.275 0-3.8596 1.5848t-1.5848 3.8596q-1.55e-4 2.2748 1.5848 3.8596 1.585 1.5848 3.8596 1.5848 2.0417 0 3.5681-1.3222t1.7985-3.3444h1.5944q-0.29167 2.6639-2.2848 4.443-1.9931 1.7791-4.6763 1.7792z"/></svg>
