<svg width="16" height="16" version="1.1" viewBox="-5 -10 16 16" xml:space="preserve" xmlns="http://www.w3.org/2000/svg"><path d="m-1.6667-9c-1.2926 0-2.3333 1.0408-2.3333 2.3333v9.3333c0 1.2926 1.0408 2.3333 2.3333 2.3333h9.3333c1.2926 0 2.3333-1.0408 2.3333-2.3333v-9.3333c0-1.2926-1.0408-2.3333-2.3333-2.3333zm4.6667 2.4979c0.41261 0 0.75035 0.33774 0.75035 0.75035v3.0014h3.0014c0.41261 0 0.75035 0.33774 0.75035 0.75035s-0.33774 0.75035-0.75035 0.75035h-3.0014v3.0014c0 0.41261-0.33774 0.75035-0.75035 0.75035s-0.75035-0.33774-0.75035-0.75035v-3.0014h-3.0014c-0.41261 0-0.75035-0.33774-0.75035-0.75035s0.33774-0.75035 0.75035-0.75035h3.0014v-3.0014c0-0.41261 0.33774-0.75035 0.75035-0.75035z" fill="#fff" fill-rule="evenodd"/></svg>
