<svg width="64" height="64" version="1.1" viewBox="0 0 64 64" xml:space="preserve" xmlns="http://www.w3.org/2000/svg"><path d="m31.994 2c-3.5777 0.00874-6.7581 2.209-8.0469 5.5059-6.026 1.9949-11.103 6.1748-14.25 11.576 0.3198-0.03567 0.64498-0.05624 0.9668-0.05664 1.8247 4.03e-4 3.6022 0.57036 5.0801 1.6406 2.053-2.9466 4.892-5.3048 8.2148-6.7754 1.3182 3.2847 4.496 5.4368 8.0352 5.4375 4.7859 5.76e-4 8.6634-3.8782 8.6641-8.6641 0-4.787-3.8774-8.6647-8.6641-8.6641zm14.148 8.4629c0.001493 0.068825 1.08e-4 0.13229 0 0.20117 0 2.0592-0.7314 4.0514-2.0664 5.6191 2.6029 1.9979 4.687 4.6357 6.0332 7.6758-0.03487 0.01246-0.051814 0.019533-0.089844 0.033204-3.239 1.3412-5.3501 4.5078-5.3496 8.0137-5.6e-5 3.5056 2.111 6.6588 5.3496 8 1.0511 0.43551 2.1787 0.66386 3.3164 0.66406 0.37838-3.45e-4 0.74796-0.028635 1.123-0.078125 4.3115-0.56733 7.5408-4.2367 7.541-8.5859-2.29e-4 -0.38522-0.026915-0.77645-0.078125-1.1582-0.41836-3.1252-2.5021-5.7755-5.4395-6.9219-1.8429-5.5649-5.5319-10.293-10.34-13.463zm-35.479 12.867v0.011719c-4.7868-5.8e-4 -8.6645 3.8772-8.6641 8.6641 5.184e-4 3.5694 2.1832 6.7701 5.5078 8.0684 1.9494 5.8885 5.9701 10.844 11.191 14.004-0.02187-0.24765-0.032753-0.49357-0.033203-0.74219 0.0011-1.8915 0.6215-3.7301 1.7656-5.2363-2.8389-2.0415-5.1101-4.8211-6.541-8.0586-0.010718 0.00405-0.023854 0.005164-0.035156 0.007812 3.2771-1.2961 5.4686-4.4709 5.4746-8.043 7e-6 -4.787-3.8793-8.6762-8.666-8.6758zm18.264 2.9746c-1.1128 0.59718-2.0251 1.5031-2.627 2.6133 0.49567 0.91964 0.77734 1.9689 0.77734 3.082 0 1.1135-0.28142 2.168-0.77734 3.0879 0.60218 1.1114 1.5189 2.0216 2.6328 2.6191 0.9175-0.49216 1.9588-0.77148 3.0684-0.77148 1.1032 0 2.1508 0.27284 3.0645 0.75976 1.1182-0.60366 2.032-1.5238 2.6309-2.6445-0.48449-0.91196-0.76367-1.9505-0.76367-3.0508 0-1.1 0.27944-2.1331 0.76367-3.0449-0.59834-1.1194-1.5143-2.0409-2.6309-2.6445-0.91432 0.48781-1.9603 0.76367-3.0645 0.76367-1.1106 3e-6 -2.1561-0.27646-3.0742-0.76953zm19.328 17.041c-2.0547 2.9472-4.8918 5.3038-8.2148 6.7754-1.3171-3.2891-4.504-5.4498-8.0469-5.4492-4.7846 0.0017-8.6634 3.8796-8.6641 8.6641 0 4.7856 3.8788 8.6627 8.6641 8.6641 3.5711 7.48e-4 6.782-2.179 8.0801-5.5059 6.026-1.9954 11.081-6.1633 14.227-11.564-0.3202 0.03625-0.64263 0.05628-0.96484 0.05664-1.822-2.87e-4 -3.6033-0.57345-5.0801-1.6406z" fill="#fff"/></svg>
