<svg width="16" height="16" version="1.1" viewBox="0 0 16 16" xml:space="preserve" xmlns="http://www.w3.org/2000/svg"><path d="m14.396 13.564-2.5415-2.5415c0.94769-1.0626 1.5364-2.4698 1.5364-4.0062 0-3.3169-2.6995-6.0164-6.0164-6.0164-3.3169 0-6.0164 2.6995-6.0164 6.0164s2.6995 6.0164 6.0164 6.0164c1.1774 0 2.2688-0.34469 3.1877-0.91896l2.6421 2.6421c0.15799 0.15799 0.37342 0.24416 0.58871 0.24416 0.21544 0 0.43079-0.08617 0.58874-0.24416 0.34469-0.33033 0.34469-0.86155 0.01512-1.1918zm-11.358-6.5477c0-2.3836 1.9384-4.3364 4.3364-4.3364 2.3979 0 4.3221 1.9528 4.3221 4.3364s-1.9384 4.3364-4.3221 4.3364-4.3364-1.9384-4.3364-4.3364z" fill="#fff"/></svg>
