<svg width="1e3mm" height="1e3mm" version="1.1" viewBox="0 0 1e3 1e3" xml:space="preserve" xmlns="http://www.w3.org/2000/svg"><path d="m302.81 270.79 125.84-162.92q13.483-17.978 32.022-26.404 18.539-8.427 38.764-8.427t38.764 8.427q18.539 8.427 32.022 26.404l125.84 162.92 191.01 64.045q29.213 8.9888 46.067 33.146 16.854 24.157 16.854 53.371 0 13.483-3.9326 26.966-3.9326 13.483-12.921 25.843l-123.6 175.28 4.4944 184.27q1.1236 39.326-25.843 66.292-26.966 26.966-62.921 26.966-2.2472 0-24.719-3.3708l-201.12-56.18-201.12 56.18q-5.618 2.2472-12.36 2.809-6.7416 0.5618-12.36 0.5618-35.955 0-62.921-26.966t-25.843-66.292l4.4944-185.39-122.47-174.16q-8.9888-12.36-12.921-25.843-3.9326-13.483-3.9326-26.966 0-28.09 16.292-52.247 16.292-24.157 45.506-34.27zm55.056 77.528-217.98 71.91 139.33 201.12-4.4944 214.61 224.72-61.798 224.72 62.921-4.4944-215.73 139.33-198.88-217.98-74.157-141.57-185.39z" stroke-width="0"/></svg>
