<svg width="1e3mm" height="1e3mm" version="1.1" viewBox="0 0 1e3 1e3" xml:space="preserve" xmlns="http://www.w3.org/2000/svg"><path d="m499.44 73.034c-13.483 0-26.404 2.8089-38.764 8.4269-12.36 5.618-23.034 14.42-32.022 26.405l-125.84 162.92-191.01 64.045c-19.476 6.7416-34.644 18.164-45.506 34.269-10.861 16.105-16.292 33.521-16.292 52.247 0 8.9888 1.3109 17.978 3.9326 26.966 2.6217 8.9888 6.9287 17.603 12.921 25.842l122.47 174.16-4.4943 185.39c-0.74906 26.217 7.8648 48.315 25.842 66.292 17.978 17.978 38.952 26.966 62.922 26.966 3.7453 0 7.8651-0.18719 12.359-0.56172 4.4944-0.37454 8.6141-1.311 12.359-2.8091l201.12-56.18 201.12 56.18c14.981 2.2472 23.221 3.3709 24.719 3.3709 23.97 0 44.944-8.9888 62.921-26.966 17.978-17.978 26.592-40.075 25.843-66.292l-4.4943-184.27 123.6-175.28c5.9925-8.2397 10.299-16.854 12.921-25.842s3.9326-17.978 3.9326-26.966c0-19.476-5.6178-37.266-16.854-53.371-11.236-16.105-26.592-27.153-46.067-33.146l-191.01-64.045-125.84-162.92c-8.9888-11.985-19.663-20.787-32.022-26.405s-25.281-8.4269-38.764-8.4269z" stroke-width="0"/></svg>
