<svg height="16" viewBox="0 0 16 16" width="16" xmlns="http://www.w3.org/2000/svg"><path d="m12.359306 1.1269514c-2.010537 0-3.6406249 1.628136-3.6406255 3.6386719.0008275.097799.005.1975061.013672.2949219-.6259717.7648332-2.331048 2.6908021-2.4804689 2.8632812-.65042.00884-1.2625977.2351857-1.7539062.6191407l-4.48046875-1.8027344c-.03133217.8922329-.01213484 1.9267878-.00585938 3.1972656l3.40039063 1.3066407c.1427592.99476.7935697 1.888872 1.7929687 2.291015 1.4921965.600624 3.1885809-.122978 3.7890625-1.615234.133191-.333401.2029905-.687875.2070313-1.046875l2.8613286-2.4804686c.09836.00881.198131.012951.296875.013672 2.010534-.0000002 3.640625-1.6300883 3.640625-3.6406251 0-2.0105359-1.630091-3.6386717-3.640625-3.6386719zm0 1.1679688c1.364987 0 2.472656 1.1057148 2.472656 2.4707031 0 1.3649893-1.107669 2.4726562-2.472656 2.4726562-1.364986 0-2.4687505-1.1076667-2.4687505-2.4726562 0-1.3649884 1.1037645-2.4707031 2.4687505-2.4707031zm0 1.0175781c-.803563-.0006828-1.454647.6495633-1.455078 1.453125.000431.8035617.651515 1.4557609 1.455078 1.4550781.803561.0006834 1.454647-.651516 1.455078-1.4550781-.000431-.803562-.651517-1.4538084-1.455078-1.453125zm-6.1660161 5.8320312c.025337-.0008722.0506-.0003069.076172 0 .2111366.00245.4177992.045147.6113282.1230469.8647403.3480629 1.2857549 1.3384646.9375 2.2031246-.3468746.861787-2.0811207 2.10998-3.3535156-.414062l1.4609374.585937c.4474135.17965.9490829-.03313 1.1289063-.480469.1796496-.447413-.035079-.949082-.4824221-1.128906l-1.4609375-.5878907.5722657-.2031245c.1595762-.056418.3324043-.091549.5097656-.097656z" fill="#fff" stroke-width="1.21346"/></svg>