<svg width="64" height="64" version="1.1" xml:space="preserve" xmlns="http://www.w3.org/2000/svg"><defs><linearGradient id="linearGradient2" x1="19.178" x2="496.29" y1="246.02" y2="246.02" gradientTransform="matrix(.081755 0 0 .081755 10.759 8.2896)" gradientUnits="userSpaceOnUse"><stop stop-color="#004e92" offset="0"/><stop stop-color="#000428" stop-opacity=".98431" offset="1"/></linearGradient><linearGradient id="linearGradient13" x1="4" x2="60.002" y1="31.97" y2="31.97" gradientTransform="matrix(1.0115 0 0 1.0115 -.36813 -.35348)" gradientUnits="userSpaceOnUse"><stop stop-color="#000428" stop-opacity=".98431" offset="0"/><stop stop-color="#004e92" offset="1"/></linearGradient></defs><g transform="matrix(.94712 0 0 .94712 1.6911 2.3537)" stroke-width="1.0115"><rect x="3.6779" y="3.6612" width="56.646" height="56.646" rx="13.152" fill="url(#linearGradient13)"/><path d="m3.6759 46.174v1.0115c0 7.2859 5.8667 13.154 13.154 13.154h30.341c7.2859 0 13.154-5.8667 13.154-13.154v-1.0115c0 7.2859-5.8667 13.152-13.154 13.152h-30.341a13.124 13.124 0 0 1-13.154-13.152" fill="#23033d" opacity=".5"/><path d="m3.6759 17.858v-1.0115c0-7.2859 5.8667-13.154 13.154-13.154h30.341c7.2859 0 13.154 5.8667 13.154 13.154v1.0115c0-7.2859-5.8667-13.152-13.154-13.152h-30.341a13.124 13.124 0 0 0-13.154 13.152" fill="#004e92" opacity=".5"/></g><g transform="matrix(1.3188 0 0 1.3188 -9.9762 -6.6854)"><path d="m31.878 19.86c-1.15-0.0062-2.3128 0.04056-3.4687 0.13237 0.68244 0.12522 1.3695 0.20923 2.0589 0.25548 0.46965-0.01611 0.93926-0.02341 1.4077-0.02092 0.34584 0.0018 0.69259 0.0099 1.0393 0.02172 0.67935-0.04619 1.3558-0.13236 2.0277-0.25484-1.0222-0.08209-2.0485-0.12839-3.065-0.13381zm-11.261 1.7068c-2.8582 0.86166-5.2609 2.0603-6.7145 3.5531-4.889 5.0211 1.7488 11.739 17.885 11.825 5.8356 0.03109 10.431-0.82109 13.7-2.1582a3.08 3.08 0 0 0 1.9172 0.6906 3.08 3.08 0 0 0 3.0964-3.0636 3.08 3.08 0 0 0-0.15935-0.9916c1.4616-1.9525 1.3258-4.1491-0.54449-6.1113-1.4521-1.5235-3.8764-2.7571-6.7636-3.6513 0.29787 0.27101 0.57182 0.56952 0.82232 0.88984 1.8171 0.74989 3.3011 1.6744 4.2306 2.7523 1.2169 1.4115 1.419 2.9249 0.69683 4.3341a3.08 3.08 0 0 0-1.3459-0.31855 3.08 3.08 0 0 0-3.0964 3.0637 3.08 3.08 0 0 0 0.09421 0.74569c-2.955 1.2935-7.2201 2.1283-12.64 2.0995-13.802-0.07353-20.097-5.6553-16.184-10.098 0.89892-1.0204 2.3043-1.8943 4.0187-2.6077 0.30102-0.35054 0.6312-0.66914 0.98506-0.95458z" color="#000000" fill="url(#linearGradient2)" stroke-width=".17273" style="-inkscape-stroke:none"/><path d="m16.269 33.742c-5e-3 0.02506-0.01117 0.04981-0.01613 0.07489l-0.33197 1.7135c-0.2241 1.1244 0.26723 2.1661 1.0647 2.7367 0.79746 0.57061 1.9376 0.69252 2.909 0.10283l3.5747-2.1684c-2.985-0.56749-5.3969-1.425-7.2003-2.4595z" color="#000000" fill="#fff" stroke-width=".125"/><path d="m37.823 19.681c-0.41895-0.0074-0.82271 0.02778-1.2353 0.10251-0.01878 0.0055-0.03727 0.01196-0.0554 0.01932-1.7429 0.48192-3.5399 0.69497-5.3332 0.64477-0.0491-0.0013-0.09813-0.0055-0.14722-0.0072-0.55472-0.02-1.109-0.0624-1.661-0.13269v0.0046c-0.59636-0.07434-1.1901-0.17787-1.779-0.31344-0.58346-0.15543-1.1729-0.23011-1.7552-0.22993-2.5232 7.7e-4 -4.9139 1.4089-6.1186 3.7605-9.6e-5 0.0063-9.6e-5 0.01256 0 0.01884-1.2704 2.57-2.2644 5.2668-2.9757 8.0454 1.9082 1.4428 4.9709 2.6182 9.0716 3.2124 1.1082-0.55438 2.3195-0.86874 3.5571-0.91062v0.0015c0.09246-0.0031 0.18463-0.0099 0.27736-0.0099h4.0429c1.5779 5.77e-4 3.1235 0.4478 4.4764 1.2702l5.2964 3.213c0.97136 0.58968 2.1159 0.46778 2.9135-0.10283 0.79746-0.57061 1.2844-1.6123 1.0604-2.7367l-0.33181-1.7135c-0.68211-3.494-1.8169-6.8876-3.3794-10.078-0.99876-2.4199-3.3344-4.0165-5.9235-4.058zm0.66441 3.055c0.64042-7.4e-5 1.1596 0.51912 1.1596 1.1596-9.7e-5 0.64032-0.51927 1.1593-1.1596 1.1593-0.47352-9.6e-5 -0.89938-0.28818-1.0757-0.72764-0.44457 0.19677-0.82409 0.51239-1.0988 0.90662-0.19774-0.14319-0.43561-0.2203-0.67974-0.22035-0.04306 5.2e-5 -0.08607 0.0025-0.12886 0.0073 0.42098-0.72268 1.0998-1.281 1.906-1.5479-0.0082 0.02323-0.01851 0.04752-0.02521 0.07122 0.15272-0.48032 0.59824-0.80692 1.1022-0.80816zm-14.359 0.91593c0.42711-0.0107 0.8545-0.0107 1.2819 0 0.23546 0.0057 0.43611 0.2156 0.44582 0.46449 0.01419 0.38854 0.02541 0.77721 0.03337 1.1663v2.89e-4c0.0035 0.12694-0.04905 0.24884-0.14339 0.33372-0.22202 0.19912-0.44653 0.40075-0.67352 0.60485v2.89e-4c-0.17273 0.15506-0.43458 0.15506-0.60756 0-0.22625-0.20336-0.45077-0.40499-0.67352-0.60485l1.92e-4 -2.88e-4c-0.09409-0.08487-0.14639-0.20687-0.14291-0.33356 0.0082-0.38904 0.01944-0.77775 0.03337-1.1663 0.01-0.2489 0.21058-0.459 0.4463-0.46498zm16.252 0.21588c0.64332 0.42409 1.1373 1.0573 1.3839 1.8019 0.39299 0.15339 0.67167 0.50813 0.72764 0.92625 0.0069 0.05108 0.01035 0.10255 0.01038 0.15409-3.5e-5 0.58188-0.43132 1.0736-1.0082 1.1495-0.05018 0.0066-0.10075 0.01001-0.15137 0.01006-0.15222-2.8e-5 -0.30295-0.03003-0.44358-0.0883-0.4333-0.17944-0.71583-0.60226-0.71582-1.0713-6.8e-5 -0.46907 0.28247-0.89199 0.71582-1.0714 0.08648-0.03108 0.11406-0.03946 0.01246-0.0051-0.18012-0.40673-0.45937-0.75894-0.80762-1.0262 0.17861-0.20975 0.27672-0.47625 0.27672-0.75175 1.4e-5 -0.0093-8.2e-5 -0.01852-2.89e-4 -0.02778zm-2.6407 1.4915c0.22396 0.12027 0.4794 0.18842 0.75031 0.18842 0.26937 0 0.52377-0.06751 0.7468-0.1865 0.27239 0.14723 0.49546 0.37122 0.64141 0.64429-0.11812 0.22241-0.18538 0.47578-0.18538 0.74409 0 0.2684 0.0672 0.52195 0.18538 0.74441-0.1461 0.27339-0.36944 0.49768-0.64222 0.64493-0.22288-0.11878-0.4769-0.18634-0.746-0.18634-0.27065 0-0.52603 0.06821-0.74984 0.18826-0.27172-0.14574-0.49485-0.36792-0.64174-0.63902 0.12097-0.22437 0.18969-0.48062 0.18969-0.75223 0-0.27153-0.06878-0.52759-0.18969-0.75191 0.14683-0.27083 0.36981-0.49271 0.64126-0.63838zm-2.1058 0.23121c0.64042-7.3e-5 1.1596 0.51912 1.1596 1.1596-8.47e-4 0.51028-0.33522 0.96004-0.82363 1.1078 0.03243-0.0092 0.06446-0.01979 0.09596-0.03178 0.19144 0.43316 0.49539 0.80454 0.87521 1.0777-0.15307 0.20152-0.23601 0.44759-0.23616 0.70066 6.2e-5 0.03326 0.0015 0.0665 0.0045 0.09964-0.69858-0.42268-1.2365-1.0863-1.4973-1.8741-0.44481-0.1737-0.73763-0.60235-0.7377-1.0799-4.6e-5 -0.64045 0.51914-1.1597 1.1596-1.1596zm-12.412 0.11864c0.12694-0.0032 0.24859 0.04905 0.33372 0.14339v1.93e-4l0.60533 0.67271v1.93e-4c0.15498 0.17299 0.15504 0.43469 0 0.6074l-0.60533 0.67303c-0.08487 0.09433-0.20678 0.14671-0.33372 0.14323-0.38904-0.0082-0.77767-0.01988-1.1655-0.03481-0.2489-0.01021-0.45866-0.21158-0.46513-0.4463-0.01169-0.42587-0.01176-0.85196-2.89e-4 -1.2779 0.0065-0.23521 0.21689-0.43559 0.4653-0.4463 0.38804-0.01493 0.77659-0.0266 1.1657-0.03481zm3.0932 1.93e-4c0.38904 0.0082 0.7776 0.02004 1.1657 0.03497 0.2489 0.01045 0.45866 0.21142 0.46513 0.44613 0.01145 0.42612 0.01145 0.85227 0 1.2779-0.0065 0.23521-0.21673 0.43559-0.46513 0.4463-0.38804 0.01494-0.7766 0.0266-1.1657 0.03481-0.12694 0.0032-0.24884-0.04889-0.33372-0.14323l-0.60533-0.67287c-0.15498-0.17299-0.15504-0.43486 0-0.60756l0.60533-0.67303c0.08487-0.09433 0.20678-0.14663 0.33372-0.14339zm-1.5468 1.6113c0.10868 0 0.21749 0.03871 0.30386 0.11624 0.22625 0.2036 0.45061 0.40523 0.67335 0.60485v4.81e-4c0.09433 0.08487 0.14687 0.20671 0.14339 0.3334-0.0082 0.38904-0.01943 0.7779-0.03337 1.1664-0.01 0.2489-0.21058 0.459-0.4463 0.46498-0.42711 0.0107-0.85435 0.0107-1.2818 0-0.23646-6e-3 -0.43659-0.21632-0.4463-0.46498-0.01419-0.38854-0.02541-0.77736-0.03337-1.1664-0.0032-0.12669 0.04905-0.24852 0.14339-0.3334 0.22227-0.19912 0.44653-0.40075 0.67352-0.60486l-1.92e-4 -4.81e-4c0.08649-0.07754 0.19503-0.11624 0.3037-0.11624zm15.895 0.94642c0.19759 0.14279 0.43516 0.21968 0.67894 0.21971 0.04311-4.7e-5 0.08618-0.0025 0.12902-0.0073-0.42097 0.72262-1.0971 1.2797-1.9033 1.5466-0.17367 0.44512-0.60258 0.73812-1.0804 0.73802-0.64024-1.92e-4 -1.1591-0.5193-1.1591-1.1596 9.7e-5 -0.64014 0.51898-1.159 1.1591-1.1593 0.474-8.1e-5 0.9003 0.28839 1.0765 0.72844 0.44461-0.19689 0.82432-0.51231 1.0992-0.90662z" color="#000000" fill="#fff" stroke-width=".125"/></g></svg>
