<svg width="48" height="48" version="1.1" viewBox="0 0 48 48" xml:space="preserve" xmlns="http://www.w3.org/2000/svg"><path d="m6 6h36c2.77 0 5 2.23 5 5v26c0 2.77-2.23 5-5 5h-36c-2.77 0-5-2.23-5-5v-26c0-2.77 2.23-5 5-5z" fill="#3f424d" stroke-width="1.1506"/><path d="m8.5301 8.5301h30.94c2.3806 0 4.2972 1.9166 4.2972 4.2972v22.346c0 2.3806-1.9166 4.2972-4.2972 4.2972h-30.94c-2.3806 0-4.2972-1.9166-4.2972-4.2972v-22.346c0-2.3806 1.9166-4.2972 4.2972-4.2972z" fill="#fff" stroke-width=".98888"/><path d="m8.2952 18.538h8.3321v1.8684h-5.7063v2.5081h5.1508v1.8684h-5.1508v2.811h5.8746v1.8684h-8.5005zm10.268 0h2.6596l5.2854 7.4568v-7.4568h2.3397v10.924h-2.6596l-5.2854-7.5747v7.5747h-2.3397zm15.166 1.8684h-3.3665v-1.8684h9.3421v1.8684h-3.3497v9.0559h-2.6259z" fill="#3f424d" stroke-width=".35123" aria-label="ENT"/></svg>
