<svg height="64" width="64" xmlns="http://www.w3.org/2000/svg"><rect fill="#09bec8" height="43.608299" rx="10.124551" stroke-width=".778692" width="43.608299" x="10.19585" y="11.20885"/><path d="m10.195082 43.936488v.778692c0 5.608917 4.516413 10.126108 10.126109 10.126108h23.35764c5.608917 0 10.126109-4.516412 10.126109-10.126108v-.778692c0 5.608917-4.516413 10.124551-10.126109 10.124551h-23.35764a10.103526 10.103526 0 0 1 -10.126109-10.124551" opacity=".1" stroke-width=".778692"/><g fill="#fff" transform="matrix(.77869183 0 0 .77869183 7.081872 8.118221)"><path d="m3.998 18.004v-1c0-7.203 5.8-13.004 13.004-13.004h29.996c7.203 0 13.004 5.8 13.004 13.004v1c0-7.203-5.8-13.002-13.004-13.002h-29.996a12.975 12.975 0 0 0 -13.004 13.002" opacity=".5"/><g transform="matrix(.12500832 .000666 -.000666 .12500832 -84.553537 1.629375)"><circle cx="933.71899" cy="229.6429" r="48.485878"/><path d="m870.46095 142.57841c-38.43083 0-79.60084 11.95085-96.56859 32.34205-26.16112 31.43945 9.74489 73.06782 96.56858 73.06782s122.72972-41.62837 96.5686-73.06782c-16.96775-20.3912-58.13777-32.34205-96.56859-32.34205zm0 2.28432c35.79338 0 73.21462 11.26207 87.36393 30.05773 20.92835 27.8008-13.10343 62.36075-87.36394 62.36075-74.26052 0-108.29227-34.55995-87.36392-62.36075 14.14931-18.79566 51.57053-30.05773 87.36393-30.05773z" transform="matrix(1.7846016 0 0 1.5414319 -619.79344 -64.562203)"/><circle cx="1083.5162" cy="273.2305" r="29.574007"/><path d="m998.08112 191.72078c-40.36428-55.44775-98.49867-104.005818-141.73154-109.987989-66.65707-9.22339-80.82184 80.346599 10.36992 205.615229 91.19176 125.26864 180.7814 139.30859 192.4839 73.0418 7.5901-42.97974-20.7581-113.22131-61.12228-168.66904zm-2.84672 2.07232c37.5941 51.64245 62.8632 115.85045 54.3012 153.3163-12.664 55.41602-91.47643 37.66779-169.47297-69.47477-77.99654-107.14258-70.67186-187.595965-14.0453-182.621417 38.28427 3.363209 91.62292 47.137407 129.21707 98.779887z" stroke-width="1.65857"/><circle cx="818.1955" cy="123.36131" r="29.574007"/><path d="m869.14444 192.3757c-39.81173 55.8458-67.46102 126.36538-59.44455 169.26763 12.3599 66.14733 101.80572 51.21855 191.74921-74.94937 89.9433-126.16793 74.89-215.592861 8.3278-205.70806-43.17134 6.411131-100.82071 55.5441-140.63246 111.3898zm2.86715 2.04396c37.07953-52.01315 89.98092-96.314807 128.23001-100.057948 56.5743-5.536619 64.6974 74.840088-12.23145 182.751808-76.92886 107.91174-155.56118 126.44159-168.77487 71.15404-8.93355-37.37897 15.69678-101.83469 52.77631-153.8479z" stroke-width="1.65857"/><circle cx="881.36707" cy="379.53308" r="29.574007"/></g></g></svg>
