<svg width="64" height="64" version="1.1" viewBox="0 0 64 64" xml:space="preserve" xmlns="http://www.w3.org/2000/svg"><defs><linearGradient id="linearGradient2" x1="19.178" x2="496.29" y1="246.02" y2="246.02" gradientTransform="matrix(.1062 0 0 .1062 4.4082 .33977)" gradientUnits="userSpaceOnUse"><stop stop-color="#004e92" offset="0"/><stop stop-color="#000428" stop-opacity=".98431" offset="1"/></linearGradient><linearGradient id="linearGradient13" x1="4" x2="60.002" y1="31.97" y2="31.97" gradientTransform="matrix(1.0115 0 0 1.0115 -.36813 -.35348)" gradientUnits="userSpaceOnUse"><stop stop-color="#000428" stop-opacity=".98431" offset="0"/><stop stop-color="#004e92" offset="1"/></linearGradient><linearGradient id="linearGradient15" x1="199.87" x2="469.22" y1="361.23" y2="361.23" gradientTransform="matrix(.125 0 -.027525 .125 .36809 1.336)" gradientUnits="userSpaceOnUse"><stop stop-color="#004e92" offset="0"/><stop stop-color="#000428" offset="1"/></linearGradient></defs><rect width="64" height="64" fill="none" stroke-width="0"/><g stroke-width="1.0115"><rect x="3.6779" y="3.6612" width="56.646" height="56.646" rx="13.152" fill="url(#linearGradient13)"/><path d="m3.6759 46.174v1.0115c0 7.2859 5.8667 13.154 13.154 13.154h30.341c7.2859 0 13.154-5.8667 13.154-13.154v-1.0115c0 7.2859-5.8667 13.152-13.154 13.152h-30.341a13.124 13.124 0 0 1-13.154-13.152" fill="#23033d" opacity=".5"/><path d="m3.6759 17.858v-1.0115c0-7.2859 5.8667-13.154 13.154-13.154h30.341c7.2859 0 13.154 5.8667 13.154 13.154v1.0115c0-7.2859-5.8667-13.152-13.154-13.152h-30.341a13.124 13.124 0 0 0-13.154 13.152" fill="#004e92" opacity=".5"/></g><path d="m31.842 15.37c-1.4939-8e-3 -3.0044 0.05269-4.5058 0.17195 0.88649 0.16266 1.779 0.27179 2.6745 0.33187 0.61008-0.02093 1.2201-0.03041 1.8286-0.02717 0.44925 0.0024 0.89968 0.0128 1.3501 0.02821 0.88248-0.06 1.7612-0.17193 2.634-0.33104-1.3278-0.10663-2.661-0.16678-3.9814-0.17382zm-14.628 2.2171c-3.7128 1.1193-6.834 2.6764-8.7222 4.6155-6.3509 6.5224 2.2717 15.249 23.233 15.361 7.5805 0.04039 13.55-1.0666 17.797-2.8035a4.0009 4.0009 89.449 0 0 2.4905 0.89709 4.0009 4.0009 89.449 0 0 4.0223-3.9796 4.0009 4.0009 89.449 0 0-0.207-1.2881c1.8986-2.5363 1.7222-5.3897-0.7073-7.9386-1.8863-1.979-5.0354-3.5815-8.7859-4.7431 0.38694 0.35204 0.7428 0.73981 1.0682 1.1559 2.3604 0.97411 4.2882 2.175 5.4956 3.5753 1.5808 1.8335 1.8433 3.7994 0.90518 5.63a4.0009 4.0009 89.449 0 0-1.7483-0.4138 4.0009 4.0009 89.449 0 0-4.0223 3.9798 4.0009 4.0009 89.449 0 0 0.12238 0.96865c-3.8386 1.6802-9.3789 2.7647-16.419 2.7272-17.929-0.09552-26.106-7.3462-21.023-13.117 1.1677-1.3255 2.9933-2.4607 5.2203-3.3874 0.39103-0.45535 0.81993-0.86922 1.2796-1.24z" color="#000000" fill="url(#linearGradient2)" stroke-width=".22438" style="-inkscape-stroke:none"/><path d="m39.564 15.137c-0.54422-0.0096-1.0676 0.035742-1.6035 0.13281-0.02439 0.0072-0.048706 0.015821-0.072266 0.025391-2.264 0.62601-4.5983 0.9031-6.9277 0.83789-0.063781-0.001699-0.12764-0.007565-0.19141-0.009765-0.72059-0.02598-1.4412-0.080565-2.1582-0.17188v0.005859c-0.77468-0.09657-1.5455-0.23015-2.3105-0.40625-0.75792-0.20191-1.5229-0.29906-2.2793-0.29883-3.2777 1e-3 -6.3843 1.8301-7.9492 4.8848-1.25e-4 0.0082-1.25e-4 0.015277 0 0.023437-1.6502 3.3385-2.9412 6.8418-3.8652 10.451 2.4787 1.8742 6.4584 3.402 11.785 4.1738 1.4395-0.72014 3.0114-1.1292 4.6191-1.1836v0.001954c0.12011-4e-3 0.24088-0.013632 0.36133-0.013672h5.252c2.0497 7.5e-4 4.0571 0.58209 5.8145 1.6504l6.8789 4.1738c1.2618 0.766 2.7492 0.60842 3.7852-0.13281 1.0359-0.74122 1.668-2.0941 1.377-3.5547l-0.42969-2.2266c-0.88606-4.5387-2.361-8.9478-4.3906-13.092-1.2974-3.1434-4.3302-5.2176-7.6934-5.2715h-0.001953zm0.86328 3.9688c0.83191-9.6e-5 1.5059 0.6739 1.5059 1.5059-1.25e-4 0.83178-0.67409 1.506-1.5059 1.5059-0.6151-1.26e-4 -1.1674-0.37444-1.3965-0.94531-0.5775 0.2556-1.0709 0.66563-1.4277 1.1777-0.25686-0.186-0.56568-0.28509-0.88281-0.28516-0.05593 6.8e-5 -0.11239 0.003566-0.16797 0.009766 0.54685-0.93877 1.4293-1.665 2.4766-2.0117 0.22399-0.573 0.77665-0.95551 1.3984-0.95703zm-18.652 1.1895c0.55482-0.0139 1.1089-0.0139 1.6641 0 0.30586 0.0074 0.56747 0.2802 0.58008 0.60352 0.01843 0.50471 0.032629 1.0102 0.042969 1.5156 0.0045 0.1649-0.063007 0.32333-0.18555 0.43359-0.28841 0.25866-0.58015 0.52004-0.875 0.78516-0.22438 0.20143-0.56435 0.20143-0.78906 0-0.2939-0.26416-0.58565-0.52554-0.875-0.78516-0.12222-0.11025-0.19007-0.26902-0.18555-0.43359 0.01067-0.50536 0.024868-1.0109 0.042968-1.5156 0.012931-0.32332 0.27389-0.59575 0.58008-0.60352zm21.111 0.28125c0.83561 0.5509 1.4766 1.3727 1.7969 2.3398 0.5105 0.19925 0.8726 0.65998 0.94531 1.2031 0.0089 0.06635 0.013632 0.13422 0.013672 0.20117-4.5e-5 0.75586-0.56123 1.3936-1.3105 1.4922-0.06519 0.0086-0.12955 0.013612-0.19531 0.013672-0.19774-3.6e-5 -0.39349-0.039544-0.57617-0.11523-0.56286-0.2331-0.9297-0.78136-0.92969-1.3906-8.8e-5 -0.60932 0.36676-1.1595 0.92969-1.3926 0.00661-0.002375 0.009563-0.003693 0.015625-0.005859-0.23397-0.52835-0.59645-0.98675-1.0488-1.334 0.23202-0.27247 0.35938-0.61868 0.35938-0.97656 1.9e-5 -0.011984 2.66e-4 -0.023182 0-0.035156zm-3.4316 1.9375c0.29092 0.15623 0.62269 0.24414 0.97461 0.24414 0.34991 0 0.68098-0.087617 0.9707-0.24219 0.35384 0.19125 0.64438 0.48317 0.83398 0.83789-0.15344 0.28891-0.24219 0.6163-0.24219 0.96484 0 0.34865 0.088667 0.67783 0.24219 0.9668-0.18978 0.35513-0.47965 0.64661-0.83398 0.83789-0.28952-0.15429-0.62113-0.24024-0.9707-0.24024-0.35158 0-0.68194 0.088191-0.97266 0.24414-0.35297-0.18932-0.64317-0.47792-0.83398-0.83008 0.15714-0.29146 0.24609-0.6257 0.24609-0.97852 0-0.35272-0.089034-0.68516-0.24609-0.97656 0.19073-0.35181 0.47942-0.6389 0.83203-0.82812zm-2.7344 0.29883c0.83191-9.6e-5 1.5059 0.67585 1.5059 1.5078-0.001031 0.62143-0.38263 1.1736-0.95312 1.3984 0.002489-9.32e-4 0.005328-0.001008 0.007812-0.001953 0.24868 0.56267 0.64333 1.0456 1.1367 1.4004-0.19884 0.26178-0.30645 0.58142-0.30664 0.91016 8e-5 0.04321 0.00206 0.085866 0.00586 0.12891-0.90746-0.54907-1.6065-1.4102-1.9453-2.4336-0.57781-0.22564-0.95694-0.782-0.95703-1.4023-6e-5 -0.83195 0.67393-1.506 1.5059-1.5059v-0.001953zm-16.123 0.1543c0.1649-0.0042 0.323 0.06496 0.43359 0.1875l0.78516 0.87305c0.20132 0.22471 0.2014 0.56471 0 0.78906l-0.78516 0.875c-0.11025 0.12254-0.26869 0.19007-0.43359 0.18555-0.50536-0.01067-1.0099-0.025522-1.5137-0.044922-0.32332-0.01326-0.59706-0.27518-0.60547-0.58008-0.01519-0.55321-0.014905-1.1069 0-1.6602 0.0084-0.30554 0.28279-0.56422 0.60547-0.57812 0.50406-0.0194 1.0083-0.036205 1.5137-0.046875zm3.957 0.001953c0.020326-0.001694 0.039934-5.26e-4 0.060546 0 0.50536 0.01067 1.0096 0.025522 1.5137 0.044922 0.32332 0.01358 0.59706 0.27519 0.60547 0.58008 0.01487 0.55353 0.01487 1.1053 0 1.6582-0.0084 0.30554-0.28279 0.56617-0.60547 0.58008-0.50406 0.0194-1.0083 0.034252-1.5137 0.044922-0.1649 0.0042-0.32333-0.062997-0.43359-0.18555l-0.78516-0.87305c-0.20132-0.22471-0.2014-0.56471 0-0.78906l0.78516-0.875c0.096468-0.10722 0.23076-0.17369 0.37305-0.18555zm-1.9492 2.0918c0.14117 0 0.28233 0.051634 0.39453 0.15234 0.2939 0.26448 0.58565 0.52586 0.875 0.78516 0.12254 0.11025 0.19203 0.26902 0.1875 0.43359-0.01067 0.50536-0.026812 1.0109-0.044922 1.5156-0.01293 0.32332-0.27194 0.59574-0.57812 0.60352-0.55482 0.0139-1.1108 0.0139-1.666 0-0.30716-0.0078-0.56747-0.2805-0.58008-0.60352-0.01843-0.50471-0.032628-1.0102-0.042968-1.5156-0.0042-0.16457 0.06496-0.32333 0.1875-0.43359 0.28873-0.25866 0.5782-0.52003 0.87305-0.78516 0.11235-0.10072 0.25336-0.15234 0.39453-0.15234zm20.648 1.2305c0.25667 0.18549 0.56613 0.28511 0.88281 0.28516 0.056-6.1e-5 0.11232-0.003466 0.16797-0.009766-0.54684 0.93869-1.4254 1.663-2.4727 2.0098-0.2256 0.57821-0.78366 0.95716-1.4043 0.95703-0.83167-2.5e-4 -1.5059-0.67414-1.5059-1.5059 1.25e-4 -0.83154 0.67431-1.5056 1.5059-1.5059 0.61573-1.05e-4 1.1695 0.37564 1.3984 0.94727 0.57755-0.25576 1.0706-0.66552 1.4277-1.1777zm-31.688 7.1113c-0.0065 0.03255-0.015044 0.065086-0.021484 0.097656l-0.43164 2.2246c-0.2911 1.4606 0.34684 2.8135 1.3828 3.5547 1.0359 0.74123 2.5175 0.90076 3.7793 0.13476l4.6445-2.8164c-3.8775-0.73717-7.0109-1.8515-9.3535-3.1953z" fill="#fff"/><path d="m16.371 42.118h3.503q1.2799 0 1.9824 0.17515 0.71593 0.17515 0.95485 0.61976 0.25536 0.43114 0.08329 1.2126l-0.36491 1.6572q-0.18987 0.86228-0.67393 1.3473-0.47058 0.48503-1.3235 0.68713-0.83942 0.2021-2.2002 0.2021h-1.1587l-0.62599 2.8428h-2.1018zm2.4536 4.4596q0.82186 0 1.2002-0.18862 0.38133-0.2021 0.48517-0.67366l0.30854-1.4012q0.09494-0.43114-0.19875-0.56587-0.28021-0.13473-1.1694-0.13473h-1.3069l-0.65269 2.9641zm5.994-4.4596h3.503q1.2799 0 1.9824 0.17515 0.71593 0.17515 0.95485 0.61976 0.25536 0.43114 0.08329 1.2126l-0.36491 1.6572q-0.18987 0.86228-0.67393 1.3473-0.47058 0.48503-1.3235 0.68713-0.83942 0.2021-2.2002 0.2021h-1.1587l-0.62599 2.8428h-2.1018zm2.4536 4.4596q0.82186 0 1.2002-0.18862 0.38133-0.2021 0.48517-0.67366l0.30854-1.4012q0.09494-0.43114-0.19875-0.56587-0.28022-0.13473-1.1694-0.13473h-1.3069l-0.65269 2.9641zm7.9865 4.4192q-0.72755 0-1.3265-0.09431-0.58552-0.09431-1.1953-0.32336-0.66067-0.24252-0.9462-0.78144-0.28256-0.5524-0.11048-1.3338l0.84257-3.8264q0.1424-0.64671 0.53808-1.1587 0.40915-0.51198 0.9325-0.80839 0.46056-0.25599 1.0919-0.43114 0.63138-0.17515 1.1523-0.21557 0.48046-0.04042 1.0059-0.04042 0.61976 0 1.066 0.05389 0.44919 0.04042 0.98242 0.18862 0.60518 0.18862 0.96351 0.45809 0.35833 0.26946 0.53446 0.7545 0.18664 0.4985 0.03236 1.1991l-0.52512 2.3847q-0.43908 1.994-1.618 2.3308h1.9132l-0.33228 1.509h-2.8698q-0.1482 0-0.93101 0.06737-0.7828 0.06737-1.2005 0.06737zm0.35626-1.4955q0.44461 0 0.74696-0.02695 0.31878-0.04042 0.6629-0.13473t0.55327-0.30988q0.22559-0.22904 0.29976-0.56587l0.84553-3.8398q0.13647-0.61976-0.30566-0.87575-0.43917-0.26946-1.4901-0.26946-1.0509 0-1.6058 0.25599-0.55487 0.25599-0.69431 0.88923l-0.84553 3.8398q-0.07417 0.33683 0.05054 0.56587 0.12768 0.21557 0.44374 0.30988 0.30259 0.09431 0.5901 0.13473 0.30395 0.02695 0.74856 0.02695zm9.313-5.8878h-2.6946l0.32931-1.4955h7.4776l-0.32931 1.4955h-2.6812l-1.5961 7.2485h-2.1018z" fill="url(#linearGradient15)" fill-rule="evenodd" stroke-width="0" aria-label="PPQT"/><path d="m15.885 41.411h3.503q1.2799 0 1.9824 0.17515 0.71593 0.17515 0.95485 0.61976 0.25536 0.43114 0.08329 1.2126l-0.36491 1.6572q-0.18987 0.86228-0.67393 1.3473-0.47058 0.48503-1.3235 0.68713-0.83942 0.2021-2.2002 0.2021h-1.1587l-0.62599 2.8428h-2.1018zm2.4536 4.4596q0.82186 0 1.2002-0.18862 0.38133-0.2021 0.48517-0.67366l0.30854-1.4012q0.09494-0.43114-0.19875-0.56587-0.28021-0.13473-1.1694-0.13473h-1.3069l-0.65269 2.9641zm5.994-4.4596h3.503q1.2799 0 1.9824 0.17515 0.71593 0.17515 0.95485 0.61976 0.25536 0.43114 0.08329 1.2126l-0.36491 1.6572q-0.18987 0.86228-0.67393 1.3473-0.47058 0.48503-1.3235 0.68713-0.83942 0.2021-2.2002 0.2021h-1.1587l-0.62599 2.8428h-2.1018zm2.4536 4.4596q0.82186 0 1.2002-0.18862 0.38133-0.2021 0.48517-0.67366l0.30854-1.4012q0.09494-0.43114-0.19875-0.56587-0.28022-0.13473-1.1694-0.13473h-1.3069l-0.65269 2.9641zm7.9865 4.4192q-0.72755 0-1.3265-0.09431-0.58552-0.09431-1.1953-0.32336-0.66067-0.24252-0.9462-0.78144-0.28256-0.5524-0.11048-1.3338l0.84257-3.8264q0.1424-0.64671 0.53808-1.1587 0.40915-0.51198 0.9325-0.80839 0.46056-0.25599 1.0919-0.43114 0.63138-0.17515 1.1523-0.21557 0.48046-0.04042 1.0059-0.04042 0.61976 0 1.066 0.05389 0.44919 0.04042 0.98242 0.18862 0.60518 0.18862 0.96351 0.45809 0.35833 0.26946 0.53446 0.75449 0.18664 0.49851 0.03236 1.1991l-0.52512 2.3847q-0.43908 1.994-1.618 2.3308h1.9132l-0.33228 1.509h-2.8698q-0.1482 0-0.93101 0.06737-0.7828 0.06737-1.2005 0.06737zm0.35626-1.4955q0.44461 0 0.74696-0.02695 0.31878-0.04042 0.6629-0.13473t0.55327-0.30988q0.22559-0.22904 0.29976-0.56587l0.84553-3.8398q0.13647-0.61976-0.30566-0.87575-0.43917-0.26946-1.4901-0.26946-1.0509 0-1.6058 0.25599-0.55487 0.25599-0.69431 0.88923l-0.84553 3.8398q-0.07417 0.33683 0.05054 0.56587 0.12768 0.21557 0.44374 0.30988 0.30259 0.09431 0.5901 0.13473 0.30395 0.02695 0.74856 0.02695zm9.313-5.8878h-2.6946l0.32931-1.4955h7.4776l-0.32931 1.4955h-2.6812l-1.5961 7.2485h-2.1018z" fill="#fff" fill-rule="evenodd" stroke-width="0" aria-label="PPQT"/></svg>
