<svg height="16" viewBox="-5 -10 16 16" width="16" xmlns="http://www.w3.org/2000/svg"><path d="m-1-8c-1.1079123 0-2 .8920877-2 2v8c0 1.1079123.8920877 2 2 2h8c1.1079123 0 2-.8920877 2-2v-8c0-1.1079123-.8920877-2-2-2zm4 2.1410256c.3536656 0 .6431624.2894969.6431624.6431625v2.5726495h2.5726495c.3536656 0 .6431625.2894968.6431625.6431624-.0000001.3536656-.2894969.6431624-.6431625.6431624h-2.5726495v2.5726496c0 .3536656-.2894968.6431624-.6431624.6431624-.3536658 0-.6431624-.2894968-.6431624-.6431624v-2.5726496h-2.57264957c-.35366576 0-.64316239-.2894968-.64316239-.6431624s.28949662-.6431624.64316239-.6431624h2.57264957v-2.5726495c0-.3536656.2894966-.6431625.6431624-.6431625z" fill="#fff" fill-rule="evenodd" opacity=".975867"/></svg>