<svg enable-background="new 0 0 100 100" height="16" viewBox="0 0 16 16" width="16" xmlns="http://www.w3.org/2000/svg"><path d="m14.549795 1.4502052c.600274.6002733.600272 1.5829916 0 2.1832645l-4.36653 4.3665298 4.36653 4.3665315c.600274.600272.600272 1.582991 0 2.183264-.600273.600272-1.582991.600273-2.183264 0l-4.3665311-4.36653-4.3665298 4.36653c-.6002743.600273-1.5829907.600273-2.1832626 0-.60027445-.600274-.60027445-1.582991 0-2.183264l4.3665289-4.3665301-4.3665315-4.3665315c-.60027447-.6002734-.60027185-1.5829915 0-2.1832642.6002745-.60027275 1.5829909-.60027412 2.1832652-.0000007l4.3665313 4.3665313 4.3665296-4.3665298c.600273-.60027274 1.582991-.60027428 2.183264-.0000008z" stroke-width="2.40033"/></svg>