<svg height="16" viewBox="-5 -10 16 16" width="16" xmlns="http://www.w3.org/2000/svg"><path d="m1.7116779-8c-.239798 0-.429276.1894784-.429276.4292763l-.000493 5.1414473h-1.705263c-.164312 0-.315785.1011513-.391777.2526316-.06316.1514779-.03799.3286185.07599.4549343l3.423355 3.8526315c.07599.08832.202308.139145.31579.139145.126316 0 .239798-.05032.315789-.139145l3.423353-3.8526315c.113487-.1263158.139149-.3029511.075986-.4549343-.063157-.1514778-.227464-.2526316-.391776-.2526316h-1.705263v-5.1414473c-.000001-.2397979-.189479-.4292763-.429277-.4292763zm-3.4233554 11.140954c-.2397979 0-.4292764.189478-.4292764.429276 0 .240291.1894785.42977.4292764.42977h9.4233554c.239798 0 .429276-.189478.429276-.429276s-.189478-.429277-.429276-.429277z" fill="#232627"/></svg>
