<svg height="16" viewBox="0 0 16 16" width="16" xmlns="http://www.w3.org/2000/svg"><path d="m14.396012 13.564103-2.54154-2.541538c.947694-1.062565 1.536411-2.4697444 1.536411-4.0061547 0-3.316923-2.699488-6.0164103-6.0164094-6.0164103-3.316923 0-6.0164104 2.6994873-6.0164104 6.0164103 0 3.3169227 2.6994874 6.0164107 6.0164104 6.0164107 1.1774358 0 2.2687176-.344616 3.1876914-.918974l2.642051 2.64205c.157949.15795.373334.244103.588719.244103.215384 0 .430769-.08616.588718-.244103.344615-.330256.344615-.861538.01435-1.191794zm-11.3579487-6.5476927c0-2.3835898 1.9384617-4.3364103 4.3364103-4.3364103 2.3979488 0 4.3220504 1.9528205 4.3220504 4.3364103 0 2.3835897-1.9384613 4.3364107-4.3220504 4.3364107-2.3835898 0-4.3364103-1.9384622-4.3364103-4.3364107z" fill="#fff" stroke-width=".143591"/></svg>