<svg height="16" viewBox="-5 -10 16 16" width="16" xmlns="http://www.w3.org/2000/svg"><path d="m7.4910726-2.5365502c-.6573164 0-1.2049895.5342959-1.2049895 1.2049899 0 1.82114894-1.478854 3.2860361-3.286037 3.2860361-1.8211493 0-3.28603593-1.47885276-3.28603593-3.2860361 0-1.821149 1.47885253-3.2860368 3.28603593-3.2860368h.109642c-.1641926.4246655-.082368.9311533.2599258 1.2734488l.01391.013905c.4653025.4653027 1.2322635.4653027 1.6975113 0l1.6290481-1.6290525c.2192879-.2192882.3562065-.5337618.3562065-.8487833 0-.3150213-.123019-.6161319-.3562065-.8487832l-1.6424706-1.6435662c-.4653025-.4653031-1.2322634-.4653031-1.6975114 0-.3422963.3422955-.4380298.8487833-.273837 1.2868119h-.096265c-3.1351526-.013904-5.6821047 2.5469523-5.6821047 5.6821055 0 3.1351531 2.5469521 5.6821053 5.6821047 5.6821053 3.1351525 0 5.6821061-2.5469522 5.6821061-5.6821051 0-.6706803-.5337619-1.20499-1.1910796-1.20499z" fill="#232627" stroke-width=".136918"/></svg>
