<svg width="16" height="16" version="1.1" viewBox="0 0 16 16" xml:space="preserve" xmlns="http://www.w3.org/2000/svg"><path d="m4.0723 1c-1.6982 0-3.0801 1.3818-3.0801 3.0801v7.8398c0 1.6982 1.3818 3.0801 3.0801 3.0801h7.8398c1.6982 0 3.0801-1.3818 3.0801-3.0801v-7.8398l-0.93359 0.93359v6.9063c0 1.1973-0.94916 2.1465-2.1465 2.1465h-7.8398c-1.1973 0-2.1465-0.94916-2.1465-2.1465v-7.8398c0-1.1973 0.94916-2.1465 2.1465-2.1465h7.0938l0.85547-0.85352 0.0078-0.00781c0.02511-0.02302 0.04987-0.044899 0.07617-0.066406-0.064467-0.0040524-0.12786-0.0058621-0.19334-0.0058621zm9.1211 0.042969c-0.14335 0-0.28025 0.028276-0.41016 0.082031-0.12991 0.053755-0.24991 0.12997-0.35742 0.22852l-7.0937 7.082v2.2832h2.2832l7.082-7.082c0.10751-0.10751 0.18705-0.22556 0.23633-0.35547 0.04927-0.12991 0.07422-0.26681 0.07422-0.41016 0-0.13439-0.02495-0.26796-0.07422-0.40234-0.049276-0.13439-0.12882-0.25106-0.23633-0.34961l-0.73828-0.75391c-0.09855-0.10751-0.21522-0.18648-0.34961-0.24023-0.13439-0.053755-0.27267-0.082031-0.41602-0.082031zm-1.5332 2.5801 0.37695 0.39062 0.38867 0.37695-5.2539 5.2539h-0.76562v-0.76562z" fill="#fff" fill-rule="evenodd" stop-color="#000000" stroke-width=".93333"/></svg>
