<svg enable-background="new 0 0 100 100" height="16" viewBox="0 0 16 16" width="16" xmlns="http://www.w3.org/2000/svg"><path d="m8 2c-3.32 0-6 2.68-6 6s2.68 6 6 6 6-2.68 6-6-2.68-6-6-6zm3.546667 6.653333c-.453334.52-1.053334.786667-1.8.786667-.573334 0-1.266667-.24-2.08-.706667-.586667-.333333-1.0000003-.533333-1.2533337-.533333-.6666666 0-1.0133333.466667-1.04 1.266667h-1.64c.026667-.8.2666667-1.6.72-2.133334.4533334-.5199997 1.0533334-.7866663 1.8266667-.7866663.6 0 1.24.2133333 1.92.6133333.693333.413333 1.186667.626667 1.453333.626667.28 0 .506667-.106667.693334-.333334.173333-.24.28-.533333.28-.933333h1.64c-.026667.946667-.266667 1.613333-.72 2.133333z" stroke-width=".133333"/></svg>