<svg enable-background="new 0 0 100 100" height="16" viewBox="0 0 16 16" width="16" xmlns="http://www.w3.org/2000/svg"><path d="m7.9761078.00000019c-3.048273-.00000001-5.78948 1.69992961-7.1465773 4.43053391-.56482451 1.1383131 1.1734772 1.812168 1.6647951.8276191 1.0429415-2.0981117 3.1414231-3.3983991 5.4817822-3.3983991 2.3403312 0 4.4395502 1.3010263 5.4817822 3.3983991.161846.3256075.489781.5160674.831443.5160674.138238 0 .281575-.031322.414765-.097479.457934-.2276554.645266-.7881352.416676-1.2462071h.0019c-1.357131-2.731199-4.098269-4.43053432-7.1465662-4.43053431zm-1.5654043 3.94504831c-.3351654.0000003-.6702704.1607748-.8314419.4835742l-1.309282 2.6166527-3.33914698.00191c-.51171227 0-.93083262.4172091-.93083262.9289213 0 .5117131.41912035.9308327.93083262.9308327l4.05972998-.095568c.2727869-.0514693.5516667-.1502971.6861784-.4185868l.7339625-1.4698363 2.2993668 4.6006457c.1575207.314181.4794503.514156.8314419.514156.3517524 0 .6739268-.199153.8314428-.514156l1.309281-2.6185646h3.339148c.512311 0 .930832-.4173743.930832-.9289214 0-.5109479-.418521-.9308326-.930832-.9308326l-4.050174.091745c-.276792.048899-.559385.1504557-.695735.4224108l-.7339628 1.4698366-2.2993668-4.6006451c-.1611815-.3227971-.4962766-.4835745-.8314419-.4835742zm-4.8089833 6.1851635c-.1269829.0077-.2541683.04119-.3746267.101302-.48225674.239292-.68074866.829073-.44152429 1.311193h.001911c1.36516419 2.746857 4.12216819 4.457293 7.18862719 4.457293 3.0655606 0 5.8219066-1.710053 7.1867166-4.455382h.0019v-.0019c.0043-.0086-.0021-.01806.0019-.02676.219147-.476945.03043-1.048916-.441525-1.284435-.241703-.120392-.509647-.13166-.747342-.05161-.237693.08006-.444282.250705-.56385.491219-1.034166 2.081687-3.115656 3.371641-5.4378226 3.371641-2.3222035 0-4.4025207-1.287975-5.4359096-3.369729v-.0019c-.1795605-.361221-.5575061-.563993-.9384546-.540932z" stroke-width=".978617"/></svg>