<svg height="16" viewBox="0 0 16 16" width="16" xmlns="http://www.w3.org/2000/svg"><path d="m8 2a6 6 0 0 0 -6 6 6 6 0 0 0 6 6 6 6 0 0 0 6-6 6 6 0 0 0 -6-6zm1.95 2.1c1.242637 0 2.25 1.0073627 2.25 2.2499998 0 1.2426375-1.007363 2.2500002-2.25 2.2500002-.06103-.000451-.12202-.0034-.182812-.0088l-1.768946 1.533399c-.0025.221885-.046.441396-.1283201.647461-.3711352.922304-1.4197213 1.369075-2.341992.997851-.6176911-.248547-1.0203599-.801377-1.108594-1.416201l-1.8884765-.75996a5.7 5.7 0 0 1 -.2308594-1.59375 5.7 5.7 0 0 1 .0216797-.430664l2.7691404 1.114453c.3036594-.237308.6819845-.376569 1.0839847-.382031.0923514-.106603 1.1470945-1.2979885 1.5339842-1.7707032-.0053622-.0602091-.0082781-.1206096-.0087896-.181055.0000003-1.2426371 1.0073626-2.2499998 2.2500006-2.2499998zm0 .9c-.745582 0-1.35.6044171-1.35 1.3499998 0 .7455831.604418 1.3500002 1.35 1.3500002s1.35-.6044171 1.35-1.3500002c0-.7455827-.604418-1.3499998-1.35-1.3499998zm0 .3a1.05 1.05 0 0 1 1.05 1.0499998 1.05 1.05 0 0 1 -1.05 1.0500002 1.05 1.05 0 0 1 -1.05-1.0500002 1.05 1.05 0 0 1 1.05-1.0499998zm-3.7359376 3.6c-.1437084-.0017-.2832025.02302-.4136718.06914l.7353518.295898a.9.9 0 0 1 .4992186 1.170704.9.9 0 0 1 -1.1707034.499219l-.7353513-.295899c.1265752.251841.3408161.460699.6228515.574219.6148481.247632 1.3140227-.05014 1.5615235-.665039.2476389-.614846-.0501341-1.314022-.6650391-1.561523-.1380949-.055586-.2853273-.084979-.4341798-.086719z" fill="#fff"/></svg>