<svg width="48" height="48" version="1.1" viewBox="0 0 48 48" xml:space="preserve" xmlns="http://www.w3.org/2000/svg"><path d="m37.535 39.437c-4.1391 1.4258-20.596 4.9156-31.79 2.551-2.7034-0.57104-4.7508-3.32-4.744-6.0831l0.057386-23.467c0.00968-3.9677 4.6895-7.2319 7.5124-7.2255 12.075 0.0276 22.278-0.00688 33.557 1.5493 2.7371 0.37765 4.8753 4.0033 4.8727 6.7663l-0.01681 17.988c-0.0045 4.8315-6.0288 6.743-9.4485 7.921z" fill="#3f424d" stroke-width="1.1477"/><path d="m35.606 37.236c-3.5492 1.2226-17.661 4.2149-27.259 2.1874-2.3181-0.48964-4.0736-2.8468-4.0678-5.216l0.049207-20.123c0.00828-3.4022 4.0211-6.2011 6.4416-6.1956 10.354 0.023666 19.103-0.00591 28.774 1.3285 2.347 0.32383 4.1804 3.4327 4.1782 5.802l-0.01441 15.424c-0.0039 4.1428-5.1694 5.7819-8.1017 6.792z" fill="#fff" stroke-width=".98413"/><path d="m12.858 16.812h6.4681q2.8796 0 4.1644 0.70883 1.2848 0.68668 1.2848 2.3259v2.5252q0 1.2626-0.90819 1.9936-0.88604 0.70883-2.3702 0.90819l4.1644 5.9143h-3.9872l-3.7657-5.6485h-1.5949v5.6485h-3.4556zm6.4238 6.4459q1.2183 0 1.6613-0.31011 0.44302-0.33226 0.44302-1.2626v-1.0189q0-0.79744-0.48732-1.0854-0.46517-0.31011-1.617-0.31011h-2.9682v3.9872zm12.626-3.0568-3.9207 2.1708v-2.7246l4.541-2.8353h2.6138v14.376h-3.234z" fill="#3f424d" stroke-width=".4622" aria-label="R1"/></svg>
