<svg width="48" height="48" version="1.1" viewBox="0 0 48 48" xml:space="preserve" xmlns="http://www.w3.org/2000/svg"><path d="m47 24a23 23 0 0 1-23 23 23 23 0 0 1-23-23 23 23 0 0 1 23-23 23 23 0 0 1 23 23z" fill="#3f424d"/><path d="M 42.513,24 A 18.513,18.513 0 0 1 24,42.513 18.513,18.513 0 0 1 5.4869995,24 18.513,18.513 0 0 1 24,5.4869995 18.513,18.513 0 0 1 42.513,24 Z" fill="#fff"/><path d="m33.019 13.476h-18.037c-0.8274 0-1.5059 0.67847-1.5059 1.5059v18.037c0 0.8274 0.67847 1.5059 1.5059 1.5059h18.037c0.8274 0 1.5059-0.67847 1.5059-1.5059v-18.037c0-0.8274-0.66192-1.5059-1.5059-1.5059zm-1.4893 18.037h-15.026v-15.026h15.026z" fill="#3f424d" stroke-width="1.6548"/></svg>
